<svg width="66" height="48" viewBox="0 0 66 48" fill="none" xmlns="http://www.w3.org/2000/svg">
<g clip-path="url(#clip0_4511_19018)">
<path d="M9.50366 47.3009C8.42369 47.6833 7.20254 47.9077 6.05121 47.9077C4.63793 47.9077 2.96368 47.5607 1.60289 46.1035C1.06366 45.5337 0 44.1474 0 41.8073C0 39.6749 0.88834 38.1838 1.90155 37.2993C2.71853 36.5715 4.09717 35.8629 6.22654 35.8629C7.70761 35.8629 8.84263 36.2083 9.50366 36.4519V39.1197H8.52767L8.26621 37.543L8.0389 37.2315C7.51599 36.9716 6.90541 36.7796 6.1032 36.7796C2.8062 36.7796 1.83019 39.4151 1.83019 41.8251C1.83019 43.4534 2.30112 44.6847 2.92953 45.4643C3.4866 46.1567 4.51612 46.9894 6.33051 46.9894C6.95892 46.9894 7.44769 46.8866 7.86511 46.765L8.1444 46.4875L8.52767 44.5637H9.50366V47.3009Z" fill="white"/>
<path d="M14.7412 46.9894L15.8569 46.9023L16.1531 46.6586V37.2087L15.8569 36.8962L14.7412 36.7796V36.0696H18.9979V36.7796L18.0027 36.8962L17.7249 37.2087V46.9023H21.6466L21.8918 46.6247L22.1875 44.546H23.0957V47.6995H14.7412V46.9894Z" fill="white"/>
<path d="M30.4092 36.0696V36.7796L29.3293 36.9235L29.0322 37.2249V43.384C29.0322 44.0247 29.0678 45.1351 29.6784 45.8968C30.3231 46.694 31.3348 46.8329 32.1534 46.8329C33.0437 46.8329 33.9677 46.694 34.5961 45.9338C35.223 45.169 35.2781 44.0085 35.2781 43.384V37.2315L34.9452 36.9185L33.8994 36.7796V36.0696H37.5777V36.7796L36.5318 36.9185L36.2184 37.2315V43.5406C36.2184 45.4805 35.8173 47.9077 31.8582 47.9077C27.9165 47.9077 27.4618 45.6724 27.4618 43.5406V37.2249L27.1663 36.9235L26.1709 36.7796V36.0696H30.4092Z" fill="white"/>
<path d="M41.2773 46.9894L42.2697 46.9023L42.5684 46.6586V37.1834L42.2697 36.9235L41.2773 36.7796V36.0696H49.6313V38.6H48.6552L48.4101 37.201L48.1665 36.9235H44.1371V41.2522H46.9989L47.2404 41.01L47.4341 39.7462H48.2347V43.5568H47.4341L47.2404 42.2915L46.9989 42.0494H44.1371V46.9023H48.7934L49.037 46.6424L49.2821 44.8736H50.2581V47.6995H41.2773V46.9894Z" fill="white"/>
<path d="M57.5718 36.0696V36.7796L56.5224 36.9007L56.4072 37.2087L59.6487 45.8451L62.7846 37.2169L62.6643 36.9007L61.5486 36.7796V36.0696H65.021V36.7796L63.9573 36.9089L59.9264 47.7866H58.7247L54.6 36.9169L53.5098 36.7796V36.0696H57.5718Z" fill="white"/>
<path d="M32.2383 8.06598C30.876 7.93683 29.8138 6.85593 29.8138 5.54254C29.8138 4.27933 30.798 3.23539 32.0823 3.03985V4.32394H32.9497V3.03985C34.2361 3.23539 35.2218 4.27933 35.2218 5.54254C35.2218 6.85593 34.1582 7.93683 32.7953 8.06598H32.2383ZM32.4915 13.0876H32.0741V9.05923C30.1598 8.95186 28.6395 7.47742 28.6395 5.54254C28.6395 3.60662 30.1598 2.08213 32.0741 1.96919V2.22347C30.3739 2.34497 29.0064 3.82252 29.0034 5.54254C29.0064 7.33557 30.4942 8.78628 32.2953 8.78874V8.7938H32.4915V13.0876ZM32.4915 28.2007L32.0741 28.4778V13.8746L32.4915 14.1239V28.2007ZM35.3498 25.7503L35.6423 25.495L36.3864 25.4038V24.6542H33.3799V14.0585L33.6382 13.8326L34.3839 13.7404V12.9908H33.3799V9.50139C35.3451 9.12717 36.8232 7.49714 36.8232 5.54254C36.8232 3.44662 35.1239 1.72451 32.9497 1.52042V-0.000177383H32.0823V1.52042C29.9096 1.72451 28.2109 3.44662 28.2109 5.54254C28.2109 7.49714 29.6905 9.12769 31.6536 9.50139V12.9908H30.6354V13.7404L31.196 13.8053L31.3744 13.8326L31.4131 13.8651L31.6536 14.1051V29.0796H36.3864V28.3299L35.6423 28.2382L35.3498 27.9839V27.2444H36.4139V26.4918H35.3498V25.7503Z" fill="white"/>
</g>
<defs>
<clipPath id="clip0_4511_19018">
<rect width="66" height="48" fill="white"/>
</clipPath>
</defs>
</svg>
