<svg width="9" height="30" viewBox="0 0 9 30" fill="none" xmlns="http://www.w3.org/2000/svg">
<path d="M4.02732 8.06598C2.66505 7.93683 1.60287 6.85593 1.60287 5.54254C1.60287 4.27933 2.58703 3.23539 3.87141 3.03985V4.32394H4.7388V3.03985C6.02513 3.23539 7.01086 4.27933 7.01086 5.54254C7.01086 6.85593 5.94724 7.93683 4.58431 8.06598H4.02732ZM4.28057 13.0876H3.86319V9.05923C1.94888 8.95186 0.428606 7.47742 0.428606 5.54254C0.428606 3.60662 1.94888 2.08213 3.86319 1.96919V2.22347C2.16299 2.34497 0.795497 3.82252 0.792496 5.54254C0.795497 7.33557 2.28329 8.78628 4.08434 8.78874V8.7938H4.28057V13.0876ZM4.28057 28.2007L3.86319 28.4778V13.8746L4.28057 14.1239V28.2007ZM7.13885 25.7503L7.43138 25.495L8.17547 25.4038V24.6542H5.16897V14.0585L5.42731 13.8326L6.17296 13.7404V12.9908H5.16897V9.50139C7.13416 9.12717 8.61229 7.49714 8.61229 5.54254C8.61229 3.44662 6.91301 1.72451 4.7388 1.52042V-0.000177383H3.87141V1.52042C1.69864 1.72451 0 3.44662 0 5.54254C0 7.49714 1.47957 9.12769 3.44267 9.50139V12.9908H2.42446V13.7404L2.9851 13.8053L3.16346 13.8326L3.20221 13.8651L3.44267 14.1051V29.0796H8.17547V28.3299L7.43138 28.2382L7.13885 27.9839V27.2444H8.203V26.4918H7.13885V25.7503Z" fill="white"/>
</svg>
