<svg width="67" height="50" viewBox="0 0 67 50" fill="none" xmlns="http://www.w3.org/2000/svg">
<g clip-path="url(#clip0_4654_4455)">
<g clip-path="url(#clip1_4654_4455)">
<path d="M32.4299 9.81725C32.369 9.72317 30.8895 9.23242 30.4124 8.851C28.1031 7.01006 28.5827 3.47818 31.123 2.08476C31.5772 1.83557 32.8689 1.61435 32.9323 1.54824C33.0135 1.46178 32.8714 0.0963295 32.9374 0.0276754C32.9729 -0.00792305 33.917 -0.00792305 33.955 0.0276754C34.0312 0.103958 33.8611 1.4033 33.9677 1.54061C34.0007 1.58384 34.8229 1.71352 35.0386 1.80251C38.2108 3.11711 39.0152 7.02023 36.0791 9.08239C35.6832 9.3621 34.3535 9.80199 34.3281 9.89353C34.2824 10.0639 34.3027 13.0109 34.3534 13.166C34.4905 13.5856 35.6781 13.0643 35.4624 13.9365C35.3964 14.2035 34.3357 14.1552 34.3357 14.4552V25.1983H37.3175C37.5027 25.1983 37.589 25.7832 37.4545 25.9713C37.2464 26.2586 36.4547 25.7831 36.3608 26.6579C36.2618 27.5987 37.2591 26.7392 37.4901 27.3139C37.9037 28.3437 36.4724 27.4715 36.3608 28.1886C36.2136 29.1218 37.4444 28.9489 37.5078 29.0124C37.5814 29.0862 37.6017 29.9024 37.1906 29.9024H32.6227C32.61 29.9024 32.4324 29.7244 32.4324 29.7117V14.4552C32.4324 14.1806 31.463 14.4272 31.4123 13.6949C31.3666 13.0389 32.4324 13.5119 32.4324 13.3745C32.4324 12.8787 32.5263 9.96473 32.4324 9.8147L32.4299 9.81725ZM32.8105 9.3087C33.0592 10.1173 32.7851 13.3593 32.9374 13.5042C32.9501 13.5169 33.3028 13.5169 33.3181 13.5042C33.4754 13.3542 33.384 9.33667 33.3206 9.12816C33.2724 8.96543 32.9602 9.09002 32.8105 9.05442C28.9253 8.10852 28.839 3.4375 32.27 2.4738C32.4552 2.42294 33.3181 2.48397 32.9349 2.06187C32.8181 1.93219 31.4097 2.48143 31.1559 2.6289C28.1285 4.40374 29.2958 9.17902 32.8105 9.3087ZM32.9374 3.20611C32.7293 2.98743 31.4427 3.86722 31.2346 4.1037C29.2577 6.34894 32.3766 9.58331 35.064 7.81356C36.6323 6.78121 36.5841 4.61479 35.0107 3.60786C33.2292 2.46363 34.0261 4.28169 33.8256 4.47748C33.7952 4.50799 32.9679 4.50799 32.9349 4.47748C32.8765 4.419 32.9958 3.26968 32.9349 3.20611H32.9374ZM32.9374 29.1421C33.2597 29.1701 33.4526 28.8624 33.45 28.5751V14.9561C33.4805 14.618 33.3181 14.2493 32.9374 14.2645V29.1396V29.1421Z" fill="black"/>
<path d="M51.078 36.8975V39.4402C51.078 39.4961 50.2583 39.6894 49.9944 39.4427C49.7457 39.2088 49.7584 37.7874 49.3651 37.7874H45.3682V42.1101H48.2231C48.6241 42.1101 48.5784 40.6836 48.6748 40.5921C48.7433 40.526 49.3702 40.62 49.5554 40.5844V44.5257C49.3702 44.4901 48.7433 44.5842 48.6748 44.5181C48.5809 44.4265 48.6241 43.0001 48.2231 43.0001H45.3682V47.9584H49.9995C50.4842 47.9584 50.4233 45.9344 50.5857 45.8123C50.705 45.7233 51.7125 45.7666 51.7125 45.9878V48.6577C51.7125 48.6704 51.5348 48.8484 51.5221 48.8484H42.5133C42.3052 48.8484 42.2671 48.0143 42.3229 47.9584C42.4676 47.8135 43.5791 48.3246 43.706 47.3787C44.0765 44.6401 43.4522 41.1718 43.7238 38.3545C43.5766 37.228 41.9423 38.3011 42.3229 36.8975H51.078Z" fill="black"/>
<path d="M38.455 36.7703C38.6733 36.839 38.719 37.3653 38.5896 37.5433C38.4144 37.7874 37.3867 37.5382 37.2522 38.2375C36.8944 43.0865 39.1504 49.7027 31.7327 48.9755C29.9055 48.7949 28.6062 47.8058 28.2738 45.9572C27.8246 43.4654 28.2966 40.5412 28.0961 37.9985C27.4846 37.4746 26.5913 38.1485 26.8451 36.9H31.286C31.6921 38.2349 30.0654 37.3348 29.8954 38.24C30.0629 40.4903 29.6391 43.117 29.9284 45.319C30.1035 46.659 30.9079 47.5897 32.2707 47.8033C37.9653 48.6958 35.8285 41.571 36.232 38.24C36.2523 37.612 34.9124 37.734 34.8414 37.6628C34.7931 37.6145 34.8718 36.9508 34.8414 36.7728C35.7372 36.9458 37.7039 36.5389 38.4576 36.7728L38.455 36.7703Z" fill="black"/>
<path d="M9.84306 48.2754C9.7111 48.6899 6.71661 49.0815 6.22683 49.0738C-1.97249 48.9772 -2.39121 36.2686 6.86633 36.6347C7.29013 36.6525 9.61467 37.0288 9.78469 37.2704C9.88366 37.4128 9.8862 39.8131 9.78469 39.9555C9.66796 40.1234 8.75692 40.1157 8.70617 40.0674C8.39149 39.7648 9.01577 38.3511 7.68094 37.8552C0.869743 35.3201 -0.487929 48.3975 6.8638 47.9627C9.27462 47.8203 8.06159 46.4548 8.75946 45.542C8.95233 45.2902 9.84052 45.3996 9.84052 45.6081C9.84052 46.142 9.94964 47.9372 9.84052 48.2779L9.84306 48.2754Z" fill="black"/>
<path d="M59.201 36.8976C59.2289 36.9255 59.2289 37.635 59.201 37.6604C58.9903 37.8638 57.8991 37.2866 58.0895 38.3266C58.3711 39.8573 60.3708 44.7928 61.0992 46.3744C61.1575 46.499 61.1753 46.6719 61.3555 46.6871L64.4033 38.0977C63.9617 37.2942 62.8299 38.2172 63.1319 36.8976H66.8115C67.0146 38.0062 66.4309 37.5739 65.6543 37.8638L61.6245 48.7722C60.5688 48.9019 60.4089 49.1485 59.9927 48.2433C58.465 44.9377 57.5743 41.0549 55.94 37.8104C55.2802 37.729 54.7346 37.7418 54.8843 36.8976C55.4274 37.0145 59.0462 36.7425 59.1984 36.8976H59.201Z" fill="black"/>
<path d="M19.6132 36.8969C19.6538 36.9401 19.6436 37.4945 19.4914 37.6013C19.3467 37.703 18.3443 37.7131 18.3443 37.9776V47.9579H22.2143C22.6229 47.9579 22.5519 45.9618 22.7929 45.6134C23.034 45.2651 23.8004 45.4024 23.8004 45.6058V48.6571C23.8004 48.6698 23.6228 48.8478 23.6101 48.8478H15.2357C15.0479 48.8478 14.9667 48.2681 15.1012 48.0748C15.3422 47.729 16.4131 48.3113 16.5654 47.5078L16.5756 38.3514C16.4791 37.286 14.7611 38.2115 15.0479 36.8944C15.6188 37.019 19.4559 36.7316 19.6157 36.8944L19.6132 36.8969Z" fill="black"/>
</g>
</g>
<defs>
<clipPath id="clip0_4654_4455">
<rect width="66.8558" height="49.075" fill="white"/>
</clipPath>
<clipPath id="clip1_4654_4455">
<rect width="66.8558" height="49.075" fill="white"/>
</clipPath>
</defs>
</svg>
