<svg width="82" height="80" viewBox="0 0 82 80" fill="none" xmlns="http://www.w3.org/2000/svg">
<g clip-path="url(#clip0_4654_30337)">
<path d="M11.9865 60.358C10.6244 60.8459 9.08419 61.1323 7.63209 61.1323C5.84958 61.1323 3.73794 60.6896 2.02165 58.8301C1.34154 58.1029 0 56.334 0 53.3479C0 50.6269 1.12042 48.7241 2.39832 47.5955C3.42875 46.6668 5.16755 45.7626 7.85322 45.7626C9.72122 45.7626 11.1528 46.2034 11.9865 46.5142V49.9184H10.7555L10.4257 47.9064L10.1391 47.509C9.47953 47.1774 8.70944 46.9324 7.69765 46.9324C3.53931 46.9324 2.30833 50.2953 2.30833 53.3706C2.30833 55.4484 2.90229 57.0196 3.69487 58.0144C4.39747 58.8979 5.69595 59.9605 7.98434 59.9605C8.77693 59.9605 9.39338 59.8293 9.91986 59.6741L10.2721 59.32L10.7555 56.8653H11.9865V60.358Z" fill="white"/>
<path d="M18.5918 59.9606L19.9989 59.8494L20.3725 59.5386V47.48L19.9989 47.0812L18.5918 46.9325V46.0264H23.9605V46.9325L22.7053 47.0812L22.3549 47.48V59.8494H27.3013L27.6105 59.4952L27.9834 56.8427H29.1289V60.8667H18.5918V59.9606Z" fill="white"/>
<path d="M38.3543 46.0263V46.9324L36.9923 47.116L36.6176 47.5006V55.3599C36.6176 56.1775 36.6625 57.5943 37.4326 58.5664C38.2457 59.5836 39.5217 59.7608 40.5542 59.7608C41.6771 59.7608 42.8425 59.5836 43.6351 58.6135C44.4258 57.6376 44.4952 56.1568 44.4952 55.3599V47.509L44.0754 47.1096L42.7563 46.9324V46.0263H47.3956V46.9324L46.0765 47.1096L45.6812 47.509V55.5596C45.6812 58.0351 45.1753 61.1323 40.1819 61.1323C35.2104 61.1323 34.6369 58.28 34.6369 55.5596V47.5006L34.2642 47.116L33.0088 46.9324V46.0263H38.3543Z" fill="white"/>
<path d="M52.0615 59.9606L53.3132 59.8494L53.6898 59.5386V47.4477L53.3132 47.1161L52.0615 46.9325V46.0264H62.5979V49.2554H61.3669L61.0577 47.4702L60.7504 47.1161H55.6683V52.6397H59.2778L59.5824 52.3306L59.8268 50.718H60.8365V55.5804H59.8268L59.5824 53.9659L59.2778 53.6569H55.6683V59.8494H61.5411L61.8484 59.5179L62.1576 57.2608H63.3885V60.8667H52.0615V59.9606Z" fill="white"/>
<path d="M72.6115 46.0265V46.9326L71.288 47.0871L71.1427 47.4801L75.231 58.5006L79.1862 47.4905L79.0344 47.0871L77.6273 46.9326V46.0265H82.0069V46.9326L80.6652 47.0976L75.5813 60.978H74.0656L68.8633 47.1078L67.4883 46.9326V46.0265H72.6115Z" fill="white"/>
<path d="M24.4228 77.4922V70.7284H21.9968C21.9513 71.6721 21.8734 72.5091 21.7622 73.2426C21.6523 73.9743 21.5264 74.6161 21.3849 75.1687C21.2442 75.7213 21.0944 76.1867 20.9387 76.5667C20.7819 76.9461 20.643 77.255 20.5209 77.4922H24.4228ZM26.7459 70.7284H25.7045V77.4922H26.8945V80H26.0363V78.3906L25.8074 78.1373H19.6056L19.3767 78.3906V80H18.5186V77.4922H19.6404C19.8536 77.171 20.0555 76.7574 20.2471 76.2493C20.4373 75.7439 20.6025 75.19 20.7441 74.5889C20.8854 73.9859 20.9973 73.3525 21.0814 72.69C21.165 72.0262 21.2081 71.3735 21.2081 70.7284H19.9719V70.084H26.7459V70.7284Z" fill="white"/>
<path d="M35.6854 70.0839V71.9712H34.9532V70.9823L34.7245 70.7283H31.9211V73.7079H33.8553L34.0263 73.5353V73.0519H34.7592V75.02H34.0263V74.5372L33.8553 74.353H31.9211V77.4922H34.9185L35.1481 77.2627V76.1349H35.8795V78.1372H29.5986V77.4922H30.6393V70.7283H29.5986V70.0839H35.6854Z" fill="white"/>
<path d="M41.3787 73.7422L43.8728 70.7283H42.9465V70.0839H45.7723V70.7283H44.8685L42.1456 73.8003L45.3835 77.4922H46.0925V78.1372H44.4565L41.2418 74.3174H40.6351V77.4922H41.5844V78.1372H38.3125V77.4922H39.3533V70.7283H38.3125V70.0839H41.5844V70.7283H40.6351V73.7422H41.3787Z" fill="white"/>
<path d="M48.5145 74.1103C48.5145 74.6015 48.5691 75.0617 48.6804 75.4902C48.791 75.92 48.9606 76.2929 49.1902 76.6064C49.4178 76.9218 49.7064 77.1706 50.0534 77.3548C50.4005 77.5391 50.8108 77.6308 51.2839 77.6308C51.7183 77.6308 52.0963 77.5391 52.4157 77.3548C52.7366 77.1706 53.002 76.9218 53.2115 76.6064C53.4212 76.2929 53.5793 75.92 53.6859 75.4902C53.7934 75.0617 53.8461 74.6015 53.8461 74.1103C53.8461 73.6191 53.7908 73.1602 53.6808 72.7304C53.5696 72.3005 53.4006 71.9289 53.171 71.6135C52.9423 71.3 52.6543 71.0499 52.3071 70.8657C51.9607 70.6815 51.5467 70.5891 51.0658 70.5891C50.6082 70.5891 50.2174 70.6815 49.8927 70.8657C49.5688 71.0499 49.3039 71.3 49.0982 71.6135C48.8918 71.9289 48.7427 72.3005 48.6514 72.7304C48.5609 73.1602 48.5145 73.6191 48.5145 74.1103ZM47.085 74.1103C47.085 73.5118 47.1763 72.9579 47.3588 72.4473C47.5419 71.9386 47.8069 71.4972 48.1539 71.1255C48.501 70.7526 48.9279 70.463 49.4357 70.2562C49.9429 70.0494 50.5208 69.946 51.1687 69.946C51.8174 69.946 52.3964 70.0494 52.9082 70.2562C53.4185 70.463 53.8498 70.7526 54.2015 71.1255C54.5518 71.4972 54.8193 71.9386 55.0018 72.4473C55.1851 72.9579 55.2762 73.5118 55.2762 74.1103C55.2762 74.7081 55.1851 75.262 55.0018 75.7726C54.8193 76.2832 54.5518 76.7227 54.2015 77.0963C53.8498 77.468 53.4185 77.7569 52.9082 77.9637C52.3964 78.1705 51.8174 78.2739 51.1687 78.2739C50.5208 78.2739 49.9429 78.1705 49.4357 77.9637C48.9279 77.7569 48.501 77.468 48.1539 77.0963C47.8069 76.7227 47.5419 76.2832 47.3588 75.7726C47.1763 75.262 47.085 74.7081 47.085 74.1103Z" fill="white"/>
<path d="M58.98 74.353C59.0186 74.3672 59.0777 74.3769 59.1574 74.3801C59.2383 74.3853 59.3232 74.3898 59.4152 74.3982C59.5064 74.4059 59.5964 74.4092 59.684 74.4092C59.772 74.4092 59.8382 74.4092 59.8837 74.4092C60.1814 74.4092 60.4617 74.3736 60.7253 74.3012C60.9881 74.2282 61.219 74.1151 61.4176 73.9619C61.6156 73.8081 61.7724 73.6077 61.8861 73.3621C62.0006 73.1165 62.0584 72.8224 62.0584 72.4766C62.0584 71.8484 61.8617 71.3844 61.4683 71.0858C61.0756 70.7865 60.5408 70.6366 59.862 70.6366C59.655 70.6366 59.484 70.643 59.3464 70.654C59.2095 70.665 59.0874 70.6818 58.98 70.7057V74.353ZM56.6582 70.7283V70.0839H57.848C58.1912 70.0839 58.5635 70.0691 58.9634 70.0387C59.3631 70.0077 59.7508 69.9915 60.1242 69.9915C60.5439 69.9915 60.956 70.0322 61.3603 70.113C61.764 70.1938 62.1227 70.3296 62.4357 70.5215C62.7489 70.7122 63.0021 70.9675 63.1962 71.2855C63.3916 71.6041 63.4887 72.0016 63.4887 72.4766C63.4887 72.9291 63.389 73.3188 63.1904 73.6452C62.9918 73.9716 62.7308 74.236 62.4068 74.4447C62.0829 74.6516 61.7087 74.8054 61.2864 74.9036C60.8629 75.0038 60.4256 75.0542 59.9757 75.0542C59.9301 75.0542 59.862 75.0542 59.77 75.0542C59.678 75.0542 59.5811 75.0523 59.4783 75.0478C59.3754 75.0445 59.2777 75.0381 59.1863 75.0316C59.095 75.0232 59.0262 75.0154 58.98 75.007V77.4922H60.1242V78.1372H56.6582V77.4922H57.6982V70.7283H56.6582Z" fill="white"/>
<path d="M40.6605 10.2921C38.9423 10.1273 37.6027 8.74806 37.6027 7.07211C37.6027 5.4602 38.8439 4.12808 40.4639 3.87857V5.51712H41.5579V3.87857C43.1802 4.12808 44.4235 5.4602 44.4235 7.07211C44.4235 8.74806 43.082 10.1273 41.363 10.2921H40.6605ZM40.9799 16.6999H40.4535V11.5596C38.0391 11.4226 36.1216 9.54111 36.1216 7.07211C36.1216 4.6018 38.0391 2.65648 40.4535 2.51236V2.83683C38.3091 2.99186 36.5844 4.87729 36.5806 7.07211C36.5844 9.3601 38.4608 11.2113 40.7324 11.2144V11.2209H40.9799V16.6999ZM40.9799 35.985L40.4535 36.3385V17.7043L40.9799 18.0223V35.985ZM44.5849 32.8581L44.9539 32.5323L45.8924 32.416V31.4595H42.1004V17.9389L42.4262 17.6506L43.3667 17.533V16.5765H42.1004V12.1238C44.579 11.6463 46.4433 9.56626 46.4433 7.07211C46.4433 4.39762 44.3001 2.20014 41.5579 1.9397V-0.000648499H40.4639V1.9397C37.7235 2.20014 35.5811 4.39762 35.5811 7.07211C35.5811 9.56626 37.4472 11.6469 39.9231 12.1238V16.5765H38.6389V17.533L39.346 17.6157L39.571 17.6506L39.6198 17.692L39.9231 17.9983V37.1064H45.8924V36.1498L44.9539 36.0328L44.5849 35.7083V34.7647H45.9271V33.8044H44.5849V32.8581Z" fill="white"/>
</g>
<defs>
<clipPath id="clip0_4654_30337">
<rect width="82" height="80" fill="white"/>
</clipPath>
</defs>
</svg>
