<svg width="16" height="16" viewBox="0 0 16 16" fill="none" xmlns="http://www.w3.org/2000/svg">
<g clip-path="url(#clip0_4473_40265)">
<path d="M1.39163 5.04742L0.754426 5.17579L0.75447 5.176L1.39163 5.04742ZM5.33301 5.33325L5.7762 5.80873L6.13214 5.47696L5.91409 5.04197L5.33301 5.33325ZM3.32789 1.33325L3.90897 1.04197C3.82061 0.865684 3.65699 0.739046 3.46418 0.6977C3.27137 0.656354 3.07021 0.704772 2.91734 0.829324L3.32789 1.33325ZM4.91919 11.0804L5.37898 10.621L5.37864 10.6206L4.91919 11.0804ZM10.952 14.608L10.8234 15.2452L10.8236 15.2452L10.952 14.608ZM10.6662 10.6667L10.9575 10.0856L10.5225 9.86753L10.1907 10.2235L10.6662 10.6667ZM14.6662 12.6718L15.1701 13.0823C15.2946 12.9295 15.3431 12.7283 15.3017 12.5355C15.2604 12.3427 15.1337 12.1791 14.9575 12.0907L14.6662 12.6718ZM1.39163 5.04742L0.75447 5.176C0.952022 6.15493 1.28156 7.12084 1.94946 8.28498L2.51326 7.96151L3.07706 7.63804C2.48043 6.59812 2.19939 5.76426 2.02878 4.91884L1.39163 5.04742ZM2.51326 7.96151L2.95645 8.43699L5.7762 5.80873L5.33301 5.33325L4.88982 4.85777L2.07007 7.48603L2.51326 7.96151ZM5.33301 5.33325L5.91409 5.04197L3.90897 1.04197L3.32789 1.33325L2.74681 1.62454L4.75193 5.62454L5.33301 5.33325ZM3.32789 1.33325L2.91734 0.829324C1.91643 1.64477 0.324064 3.03945 0.754426 5.17579L1.39163 5.04742L2.02882 4.91906C1.76858 3.62718 2.6751 2.7035 3.73845 1.83718L3.32789 1.33325ZM2.51326 7.96151L1.94946 8.28498C2.62046 9.45451 3.47943 10.5606 4.45974 11.5402L4.91919 11.0804L5.37864 10.6206C4.47406 9.7167 3.68705 8.70124 3.07706 7.63804L2.51326 7.96151ZM10.952 14.608L11.0806 13.9709C10.2352 13.8003 9.4013 13.5192 8.36138 12.9226L8.03791 13.4864L7.71444 14.0502C8.87858 14.7181 9.84449 15.0476 10.8234 15.2452L10.952 14.608ZM8.03791 13.4864L8.51339 13.9296L11.1416 11.1098L10.6662 10.6667L10.1907 10.2235L7.56243 13.0432L8.03791 13.4864ZM10.6662 10.6667L10.3749 11.2477L14.3749 13.2529L14.6662 12.6718L14.9575 12.0907L10.9575 10.0856L10.6662 10.6667ZM14.6662 12.6718L14.1622 12.2612C13.2959 13.3246 12.3722 14.2311 11.0804 13.9708L10.952 14.608L10.8236 15.2452C12.96 15.6756 14.3546 14.0832 15.1701 13.0823L14.6662 12.6718ZM8.03791 13.4864L8.36138 12.9226C7.2982 12.3126 6.28294 11.5256 5.37898 10.621L4.91919 11.0804L4.4594 11.5399C5.43896 12.5201 6.54485 13.3792 7.71444 14.0502L8.03791 13.4864Z" fill="#FAFAFA"/>
</g>
<defs>
<clipPath id="clip0_4473_40265">
<rect width="16" height="16" fill="white"/>
</clipPath>
</defs>
</svg>
